<svg width="17" height="18" viewBox="0 0 17 18" fill="none" xmlns="http://www.w3.org/2000/svg">
<path d="M10.5398 12.4955V14.615C10.5398 15.0636 10.4092 15.2879 10.148 15.2879C9.994 15.2879 9.84333 15.2143 9.69601 15.067V12.0435C9.84333 11.8962 9.994 11.8225 10.148 11.8225C10.4092 11.8225 10.5398 12.0469 10.5398 12.4955ZM13.9348 12.5056V12.9676H13.0308V12.5056C13.0308 12.0502 13.1815 11.8225 13.4828 11.8225C13.7842 11.8225 13.9348 12.0502 13.9348 12.5056ZM4.23172 10.3158H5.3065V9.37165H2.17257V10.3158H3.22726V16.0312H4.23172V10.3158ZM7.12458 16.0312H8.01855V11.0692H7.12458V14.8661C6.92369 15.1473 6.73284 15.2879 6.55204 15.2879C6.4315 15.2879 6.36119 15.2176 6.3411 15.077C6.3344 15.0569 6.33105 14.9397 6.33105 14.7254V11.0692H5.43708V14.9967C5.43708 15.3248 5.46387 15.5692 5.51744 15.7299C5.5978 15.9777 5.79199 16.1016 6.10003 16.1016C6.42146 16.1016 6.76297 15.8973 7.12458 15.4888V16.0312ZM11.4337 14.5446V12.5658C11.4337 12.077 11.4036 11.7455 11.3433 11.5714C11.2295 11.1964 10.9918 11.0089 10.6302 11.0089C10.2953 11.0089 9.98396 11.1897 9.69601 11.5513V9.37165H8.80204V16.0312H9.69601V15.5491C9.99735 15.9174 10.3087 16.1016 10.6302 16.1016C10.9918 16.1016 11.2295 15.9174 11.3433 15.5491C11.4036 15.3683 11.4337 15.0335 11.4337 14.5446ZM14.8288 14.4442V14.3136H13.9148C13.9148 14.6551 13.9081 14.8594 13.8947 14.9263C13.8478 15.1674 13.7139 15.2879 13.4929 15.2879C13.1848 15.2879 13.0308 15.0569 13.0308 14.5949V13.721H14.8288V12.6864C14.8288 12.1574 14.7384 11.769 14.5576 11.5212C14.2965 11.1797 13.9415 11.0089 13.4929 11.0089C13.0375 11.0089 12.6793 11.1797 12.4181 11.5212C12.2306 11.769 12.1369 12.1574 12.1369 12.6864V14.4241C12.1369 14.9531 12.234 15.3415 12.4282 15.5893C12.6893 15.9308 13.0509 16.1016 13.513 16.1016C13.9951 16.1016 14.3567 15.9241 14.5978 15.5692C14.7183 15.3884 14.7886 15.2076 14.8087 15.0268C14.8221 14.9665 14.8288 14.7723 14.8288 14.4442ZM8.72168 5.27344V3.16406C8.72168 2.70201 8.57771 2.47098 8.28976 2.47098C8.00181 2.47098 7.85784 2.70201 7.85784 3.16406V5.27344C7.85784 5.74219 8.00181 5.97656 8.28976 5.97656C8.57771 5.97656 8.72168 5.74219 8.72168 5.27344ZM15.9438 12.817C15.9438 14.3839 15.8567 15.5558 15.6826 16.3326C15.5889 16.7277 15.3947 17.0592 15.1 17.327C14.8054 17.5949 14.4639 17.7489 14.0755 17.7891C12.8433 17.9297 10.9851 18 8.5007 18C6.01632 18 4.15806 17.9297 2.92592 17.7891C2.53753 17.7489 2.19434 17.5949 1.89634 17.327C1.59835 17.0592 1.40583 16.7277 1.31878 16.3326C1.14467 15.5826 1.05762 14.4107 1.05762 12.817C1.05762 11.25 1.14467 10.0781 1.31878 9.30134C1.41253 8.90625 1.60672 8.57478 1.90137 8.30692C2.19601 8.03906 2.54088 7.8817 2.93597 7.83482C4.16141 7.70089 6.01632 7.63393 8.5007 7.63393C10.9851 7.63393 12.8433 7.70089 14.0755 7.83482C14.4639 7.8817 14.8071 8.03906 15.1051 8.30692C15.403 8.57478 15.5956 8.90625 15.6826 9.30134C15.8567 10.0513 15.9438 11.2232 15.9438 12.817ZM5.91922 0H6.94378L5.72838 4.00781V6.72991H4.72391V4.00781C4.63016 3.51228 4.42592 2.80246 4.11119 1.87835C3.86342 1.18862 3.64579 0.5625 3.45829 0H4.52302L5.23619 2.64174L5.91922 0ZM9.63574 3.34487V5.10268C9.63574 5.64509 9.54199 6.04018 9.35449 6.28795C9.10003 6.62946 8.74512 6.80022 8.28976 6.80022C7.8411 6.80022 7.48954 6.62946 7.23507 6.28795C7.04757 6.03348 6.95382 5.63839 6.95382 5.10268V3.34487C6.95382 2.80915 7.04757 2.41741 7.23507 2.16964C7.48954 1.82812 7.8411 1.65737 8.28976 1.65737C8.74512 1.65737 9.10003 1.82812 9.35449 2.16964C9.54199 2.41741 9.63574 2.80915 9.63574 3.34487ZM13.0007 1.71763V6.72991H12.0866V6.17746C11.7317 6.59263 11.3869 6.80022 11.052 6.80022C10.744 6.80022 10.5465 6.67634 10.4594 6.42857C10.4058 6.26786 10.379 6.01674 10.379 5.67522V1.71763H11.2931V5.40402C11.2931 5.625 11.2965 5.74219 11.3032 5.75558C11.3232 5.9029 11.3936 5.97656 11.5141 5.97656C11.6949 5.97656 11.8857 5.83259 12.0866 5.54464V1.71763H13.0007Z" fill="black"/>
</svg>
