<svg width="17" height="18" viewBox="0 0 17 18" fill="none" xmlns="http://www.w3.org/2000/svg">
<path d="M10.3185 10.8177C10.3185 10.8177 10.4441 10.6921 10.6952 10.441C10.9463 10.1899 11.0718 9.7094 11.0718 8.99958C11.0718 8.28976 10.8207 7.68373 10.3185 7.1815C9.81627 6.67927 9.21024 6.42815 8.50042 6.42815C7.7906 6.42815 7.18457 6.67927 6.68234 7.1815C6.18011 7.68373 5.92899 8.28976 5.92899 8.99958C5.92899 9.7094 6.18011 10.3154 6.68234 10.8177C7.18457 11.3199 7.7906 11.571 8.50042 11.571C9.21024 11.571 9.81627 11.3199 10.3185 10.8177ZM11.3029 6.19713C11.3029 6.19713 11.4954 6.38965 11.8804 6.77469C12.2655 7.15974 12.458 7.90137 12.458 8.99958C12.458 10.0978 12.073 11.0319 11.3029 11.802C10.5328 12.5721 9.59863 12.9572 8.50042 12.9572C7.4022 12.9572 6.46805 12.5721 5.69796 11.802C4.92787 11.0319 4.54283 10.0978 4.54283 8.99958C4.54283 7.90137 4.92787 6.96722 5.69796 6.19713C6.46805 5.42704 7.4022 5.04199 8.50042 5.04199C9.59863 5.04199 10.5328 5.42704 11.3029 6.19713ZM13.2716 4.22838C13.2716 4.22838 13.3168 4.27358 13.4072 4.36398C13.4976 4.45438 13.5428 4.62681 13.5428 4.88128C13.5428 5.13574 13.4524 5.35338 13.2716 5.53418C13.0908 5.71498 12.8732 5.80539 12.6187 5.80539C12.3643 5.80539 12.1466 5.71498 11.9658 5.53418C11.785 5.35338 11.6946 5.13574 11.6946 4.88128C11.6946 4.62681 11.785 4.40918 11.9658 4.22838C12.1466 4.04757 12.3643 3.95717 12.6187 3.95717C12.8732 3.95717 13.0908 4.04757 13.2716 4.22838ZM9.26883 2.66643C9.26883 2.66643 9.15248 2.66727 8.91978 2.66895C8.68708 2.67062 8.54729 2.67146 8.50042 2.67146C8.45354 2.67146 8.1974 2.66978 7.732 2.66643C7.2666 2.66309 6.91336 2.66309 6.67229 2.66643C6.43122 2.66978 6.10812 2.67983 5.70299 2.69657C5.29785 2.71331 4.95299 2.74679 4.66839 2.79701C4.38379 2.84724 4.14439 2.90918 3.9502 2.98284C3.61537 3.11677 3.32073 3.31097 3.06627 3.56543C2.8118 3.81989 2.61761 4.11454 2.48368 4.44936C2.41002 4.64355 2.34807 4.88295 2.29785 5.16755C2.24763 5.45215 2.21415 5.79701 2.19741 6.20215C2.18066 6.60728 2.17062 6.93039 2.16727 7.17146C2.16392 7.41253 2.16392 7.76576 2.16727 8.23117C2.17062 8.69657 2.17229 8.95271 2.17229 8.99958C2.17229 9.04646 2.17062 9.3026 2.16727 9.768C2.16392 10.2334 2.16392 10.5866 2.16727 10.8277C2.17062 11.0688 2.18066 11.3919 2.19741 11.797C2.21415 12.2021 2.24763 12.547 2.29785 12.8316C2.34807 13.1162 2.41002 13.3556 2.48368 13.5498C2.61761 13.8846 2.8118 14.1793 3.06627 14.4337C3.32073 14.6882 3.61537 14.8824 3.9502 15.0163C4.14439 15.09 4.38379 15.1519 4.66839 15.2021C4.95299 15.2524 5.29785 15.2859 5.70299 15.3026C6.10812 15.3193 6.43122 15.3294 6.67229 15.3327C6.91336 15.3361 7.2666 15.3361 7.732 15.3327C8.1974 15.3294 8.45354 15.3277 8.50042 15.3277C8.54729 15.3277 8.80343 15.3294 9.26883 15.3327C9.73424 15.3361 10.0875 15.3361 10.3285 15.3327C10.5696 15.3294 10.8927 15.3193 11.2979 15.3026C11.703 15.2859 12.0479 15.2524 12.3324 15.2021C12.617 15.1519 12.8564 15.09 13.0506 15.0163C13.3855 14.8824 13.6801 14.6882 13.9346 14.4337C14.189 14.1793 14.3832 13.8846 14.5172 13.5498C14.5908 13.3556 14.6528 13.1162 14.703 12.8316C14.7532 12.547 14.7867 12.2021 14.8034 11.797C14.8202 11.3919 14.8302 11.0688 14.8336 10.8277C14.8369 10.5866 14.8369 10.2334 14.8336 9.768C14.8302 9.3026 14.8285 9.04646 14.8285 8.99958C14.8285 8.95271 14.8302 8.69657 14.8336 8.23117C14.8369 7.76576 14.8369 7.41253 14.8336 7.17146C14.8302 6.93039 14.8202 6.60728 14.8034 6.20215C14.7867 5.79701 14.7532 5.45215 14.703 5.16755C14.6528 4.88295 14.5908 4.64355 14.5172 4.44936C14.3832 4.11454 14.189 3.81989 13.9346 3.56543C13.6801 3.31097 13.3855 3.11677 13.0506 2.98284C12.8564 2.90918 12.617 2.84724 12.3324 2.79701C12.0479 2.74679 11.703 2.71331 11.2979 2.69657C10.8927 2.67983 10.5696 2.66978 10.3285 2.66643C10.0875 2.66309 9.73424 2.66309 9.26883 2.66643ZM16.1645 5.81543C16.198 6.40472 16.2147 7.4661 16.2147 8.99958C16.2147 10.5331 16.198 11.5944 16.1645 12.1837C16.0975 13.5766 15.6823 14.6547 14.9189 15.4181C14.1556 16.1815 13.0774 16.5967 11.6846 16.6636C11.0953 16.6971 10.0339 16.7139 8.50042 16.7139C6.96694 16.7139 5.90555 16.6971 5.31627 16.6636C3.92341 16.5967 2.84528 16.1815 2.08189 15.4181C1.3185 14.6547 0.90332 13.5766 0.836356 12.1837C0.802874 11.5944 0.786133 10.5331 0.786133 8.99958C0.786133 7.4661 0.802874 6.40472 0.836356 5.81543C0.90332 4.42257 1.3185 3.34445 2.08189 2.58105C2.84528 1.81766 3.92341 1.40248 5.31627 1.33552C5.90555 1.30204 6.96694 1.2853 8.50042 1.2853C10.0339 1.2853 11.0953 1.30204 11.6846 1.33552C13.0774 1.40248 14.1556 1.81766 14.9189 2.58105C15.6823 3.34445 16.0975 4.42257 16.1645 5.81543Z" fill="black"/>
</svg>
