<svg width="25" height="26" viewBox="0 0 25 26" fill="none" xmlns="http://www.w3.org/2000/svg">
<path d="M21.0938 2.12207H3.90625C3.28465 2.12207 2.68851 2.369 2.24897 2.80854C1.80943 3.24808 1.5625 3.84422 1.5625 4.46582L1.5625 21.6533C1.5625 22.2749 1.80943 22.8711 2.24897 23.3106C2.68851 23.7501 3.28465 23.9971 3.90625 23.9971H10.6079V16.5601H7.53174V13.0596H10.6079V10.3916C10.6079 7.35693 12.4146 5.68066 15.1816 5.68066C16.5068 5.68066 17.8926 5.91699 17.8926 5.91699V8.89551H16.3657C14.8613 8.89551 14.3921 9.8291 14.3921 10.7866V13.0596H17.7505L17.2134 16.5601H14.3921V23.9971H21.0938C21.7154 23.9971 22.3115 23.7501 22.751 23.3106C23.1906 22.8711 23.4375 22.2749 23.4375 21.6533V4.46582C23.4375 3.84422 23.1906 3.24808 22.751 2.80854C22.3115 2.369 21.7154 2.12207 21.0938 2.12207Z" fill="#F2F5F7"/>
</svg>
