<svg width="36" height="37" viewBox="0 0 36 37" fill="none" xmlns="http://www.w3.org/2000/svg">
<path d="M18 36.6807C16.5469 36.6807 15.1641 36.3936 13.8516 35.8193C12.5391 35.2451 11.3789 34.4307 10.3711 33.376C9.36328 32.2744 8.58398 31.0029 8.0332 29.5615C7.48242 28.1201 7.20703 26.5908 7.20703 24.9736C7.20703 23.6611 7.34766 22.4189 7.62891 21.2471C7.88672 20.0986 8.24414 18.9971 8.70117 17.9424C9.1582 16.8877 9.67969 15.8682 10.2656 14.8838C10.8281 13.876 11.4258 12.8799 12.0586 11.8955C12.5508 11.0986 13.0312 10.3018 13.5 9.50488C13.9922 8.70801 14.4551 7.88184 14.8887 7.02637C15.3223 6.1709 15.7383 5.27441 16.1367 4.33691C16.5117 3.39941 16.8398 2.40332 17.1211 1.34863C17.1914 1.16113 17.3027 1.00293 17.4551 0.874023C17.6074 0.745117 17.7891 0.680664 18 0.680664C18.2109 0.680664 18.3926 0.745117 18.5449 0.874023C18.6973 1.00293 18.8086 1.16113 18.8789 1.34863C19.1602 2.40332 19.4883 3.39941 19.8633 4.33691C20.2617 5.27441 20.6836 6.1709 21.1289 7.02637C21.5742 7.88184 22.0312 8.70801 22.5 9.50488C22.9922 10.3252 23.4727 11.1221 23.9414 11.8955C24.5742 12.8799 25.1836 13.876 25.7695 14.8838C26.3555 15.8682 26.8711 16.8877 27.3164 17.9424C27.7617 18.9971 28.125 20.0986 28.4062 21.2471C28.6641 22.4189 28.793 23.6611 28.793 24.9736C28.793 26.5908 28.5234 28.1201 27.9844 29.5615C27.4453 31.0029 26.6719 32.2744 25.6641 33.376C24.6562 34.4307 23.4961 35.2451 22.1836 35.8193C20.8711 36.3936 19.4766 36.6807 18 36.6807ZM18 4.47754C17.3906 6.07129 16.6992 7.54199 15.9258 8.88965C15.1523 10.2373 14.3789 11.5557 13.6055 12.8447C12.9727 13.8291 12.3867 14.79 11.8477 15.7275C11.2852 16.665 10.793 17.6201 10.3711 18.5928C9.94922 19.5654 9.62109 20.5791 9.38672 21.6338C9.12891 22.665 9 23.7783 9 24.9736C9 26.3799 9.23438 27.6924 9.70312 28.9111C10.1484 30.1064 10.7754 31.1494 11.584 32.04C12.3926 32.9307 13.3477 33.6221 14.4492 34.1143C15.5273 34.6299 16.7109 34.8877 18 34.8877C19.2891 34.8877 20.4844 34.6299 21.5859 34.1143C22.6641 33.6221 23.6074 32.9307 24.416 32.04C25.2246 31.1494 25.8633 30.1064 26.332 28.9111C26.7773 27.6924 27 26.3799 27 24.9736C27 23.7783 26.8711 22.665 26.6133 21.6338C26.3789 20.5791 26.0508 19.5654 25.6289 18.5928C25.207 17.6201 24.7266 16.665 24.1875 15.7275C23.625 14.79 23.0391 13.8291 22.4297 12.8447C21.6328 11.5557 20.8477 10.2373 20.0742 8.88965C19.3008 7.54199 18.6094 6.07129 18 4.47754Z" fill="#3A416F"/>
</svg>
