<svg width="36" height="37" viewBox="0 0 36 37" fill="none" xmlns="http://www.w3.org/2000/svg">
<path d="M18 12.3809C15.0176 12.3809 12.6 15.2012 12.6 18.6809C12.6 22.1599 15.0176 24.9809 18 24.9809C20.9812 24.9809 23.4 22.161 23.4 18.6809C23.4 15.2012 20.9824 12.3809 18 12.3809ZM20.25 21.8309C20.25 22.0795 20.0486 22.2809 19.8 22.2809H16.2C15.9514 22.2809 15.75 22.0795 15.75 21.8309V20.9309C15.75 20.6822 15.9514 20.4809 16.2 20.4809H17.1V17.3624L17.0736 17.3798C17.0244 17.4126 16.9693 17.4354 16.9113 17.4469C16.8534 17.4583 16.7937 17.4583 16.7358 17.4467C16.6778 17.4351 16.6227 17.4122 16.5737 17.3793C16.5246 17.3464 16.4825 17.3041 16.4497 17.2549L15.9502 16.5062C15.9174 16.4571 15.8947 16.402 15.8832 16.344C15.8717 16.286 15.8718 16.2264 15.8834 16.1684C15.895 16.1105 15.9179 16.0554 15.9508 16.0063C15.9837 15.9573 16.0259 15.9152 16.0751 15.8824L16.9374 15.3075C17.1591 15.1597 17.4197 15.0808 17.6861 15.0809H18.45C18.6986 15.0809 18.9 15.2822 18.9 15.5309V20.4809H19.8C20.0486 20.4809 20.25 20.6822 20.25 20.9309V21.8309ZM34.2 7.88086H1.8C0.806062 7.88086 0 8.68692 0 9.68086V27.6809C0 28.6748 0.806062 29.4809 1.8 29.4809H34.2C35.1939 29.4809 36 28.6748 36 27.6809V9.68086C36 8.68692 35.1939 7.88086 34.2 7.88086ZM33.3 23.1809C31.3116 23.1809 29.7 24.7924 29.7 26.7809H6.3C6.3 24.7924 4.68844 23.1809 2.7 23.1809V14.1809C4.68844 14.1809 6.3 12.5693 6.3 10.5809H29.7C29.7 12.5693 31.3116 14.1809 33.3 14.1809V23.1809Z" fill="#3A416F"/>
</svg>
