<svg width="36" height="38" viewBox="0 0 36 38" fill="none" xmlns="http://www.w3.org/2000/svg">
<path d="M28.0547 26.1338C27.7734 25.9463 27.5273 25.8057 27.3164 25.7119C27.1055 25.6182 26.9766 25.5596 26.9297 25.5361L23.6953 24.2002L21.375 22.6885C21.375 22.665 21.3691 22.6533 21.3574 22.6533C21.3457 22.6533 21.3281 22.6533 21.3047 22.6533V21.6689C22.1719 21.2236 22.8984 20.6025 23.4844 19.8057C24.0703 19.0088 24.4336 18.1182 24.5742 17.1338C25.2773 17.0635 25.8691 16.7705 26.3496 16.2549C26.8301 15.7393 27.0703 15.1182 27.0703 14.3916C27.0703 14.04 27.0059 13.7119 26.877 13.4072C26.748 13.1025 26.5781 12.8213 26.3672 12.5635V9.08301C26.3672 7.98145 26.1562 6.9502 25.7344 5.98926C25.3125 5.02832 24.7441 4.18457 24.0293 3.45801C23.3145 2.73145 22.4648 2.16895 21.4805 1.77051C20.5195 1.34863 19.4883 1.1377 18.3867 1.1377H17.7891C16.6875 1.1377 15.6562 1.34863 14.6953 1.77051C13.7109 2.16895 12.8613 2.73145 12.1465 3.45801C11.4316 4.18457 10.8633 5.02832 10.4414 5.98926C10.0195 6.9502 9.80859 7.98145 9.80859 9.08301V12.5283C9.57422 12.7861 9.39258 13.0732 9.26367 13.3896C9.13477 13.7061 9.07031 14.04 9.07031 14.3916C9.07031 15.1182 9.31055 15.7393 9.79102 16.2549C10.2715 16.7705 10.8633 17.0635 11.5664 17.1338C11.707 18.1182 12.0703 19.0088 12.6562 19.8057C13.2422 20.6025 13.9688 21.2236 14.8359 21.6689V22.583L12.4453 24.165C12.4219 24.165 12.4043 24.165 12.3926 24.165C12.3809 24.165 12.3633 24.165 12.3398 24.165L9.07031 25.5361C8.97656 25.5596 8.72461 25.6768 8.31445 25.8877C7.9043 26.0986 7.46484 26.4268 6.99609 26.8721C6.52734 27.3174 6.06445 27.9502 5.60742 28.7705C5.15039 29.5908 4.92188 30.6572 4.92188 31.9697V36.5752C4.92188 36.7158 4.97461 36.8447 5.08008 36.9619C5.18555 37.0791 5.32031 37.1377 5.48438 37.1377H12.2344C12.3984 37.1377 12.5332 37.0791 12.6387 36.9619C12.7441 36.8447 12.7969 36.7158 12.7969 36.5752C12.7969 36.4111 12.7441 36.2705 12.6387 36.1533C12.5332 36.0361 12.3984 35.9775 12.2344 35.9775H10.4766V31.7588C10.4766 31.5947 10.4238 31.4541 10.3184 31.3369C10.2129 31.2197 10.0781 31.1611 9.91406 31.1611C9.75 31.1611 9.61523 31.2197 9.50977 31.3369C9.4043 31.4541 9.35156 31.5947 9.35156 31.7588V35.9775H6.04688V31.9697C6.04688 29.9072 6.59766 28.5068 7.69922 27.7686C8.80078 27.0303 9.38672 26.6494 9.45703 26.626C9.45703 26.626 9.46289 26.626 9.47461 26.626C9.48633 26.626 9.49219 26.6143 9.49219 26.5908L12.2344 25.4658L15.1523 35.9775H14.0273C13.8633 35.9775 13.7285 36.0361 13.623 36.1533C13.5176 36.2705 13.4648 36.4111 13.4648 36.5752C13.4648 36.7158 13.5176 36.8447 13.623 36.9619C13.7285 37.0791 13.8633 37.1377 14.0273 37.1377H15.9258H20.25H30.5156C30.6797 37.1377 30.8145 37.0791 30.9199 36.9619C31.0254 36.8447 31.0781 36.7158 31.0781 36.5752V31.9697C31.0781 30.2822 30.7148 28.9756 29.9883 28.0498C29.2617 27.124 28.6172 26.4854 28.0547 26.1338ZM22.7461 24.9385L21.0234 28.4893L18.9141 26.9072L21.1641 24.5869C21.2109 24.5166 21.252 24.4404 21.2871 24.3584C21.3223 24.2764 21.3281 24.1885 21.3047 24.0947C21.3047 24.0947 21.3047 24.0889 21.3047 24.0771C21.3047 24.0654 21.3047 24.0479 21.3047 24.0244V23.9893L22.7461 24.9385ZM19.2656 28.6299L18.8438 29.8252H17.2969L16.8047 28.5947L18.0352 27.6807L19.2656 28.6299ZM15.9609 24.1299C15.9609 24.1064 15.9609 24.0889 15.9609 24.0771C15.9609 24.0654 15.9609 24.0479 15.9609 24.0244V22.8994V22.0908C16.2188 22.1611 16.4707 22.208 16.7168 22.2314C16.9629 22.2549 17.2148 22.2666 17.4727 22.2666H18.668C18.9258 22.2666 19.1777 22.2549 19.4238 22.2314C19.6699 22.208 19.9219 22.1611 20.1797 22.0908V23.9541L18.0352 26.1689L15.9609 24.1299ZM25.9453 14.3916C25.9453 14.79 25.8164 15.1357 25.5586 15.4287C25.3008 15.7217 24.9961 15.9033 24.6445 15.9736V12.8447C24.9961 12.915 25.3008 13.0967 25.5586 13.3896C25.8164 13.6826 25.9453 14.0166 25.9453 14.3916ZM11.4961 15.9736C11.1445 15.9033 10.8457 15.7217 10.5996 15.4287C10.3535 15.1357 10.2305 14.79 10.2305 14.3916C10.2305 14.0166 10.3535 13.6826 10.5996 13.3896C10.8457 13.0967 11.1445 12.915 11.4961 12.8447V15.9736ZM12.0938 11.1221C12.0703 11.1221 12.0527 11.1221 12.041 11.1221C12.0293 11.1221 12.0234 11.1338 12.0234 11.1572C12 11.1572 11.9883 11.1572 11.9883 11.1572C11.9883 11.1572 11.9766 11.1572 11.9531 11.1572C11.9531 11.1572 11.9473 11.1572 11.9355 11.1572C11.9238 11.1572 11.918 11.1572 11.918 11.1572C11.918 11.1572 11.9121 11.1572 11.9004 11.1572C11.8887 11.1572 11.8828 11.1572 11.8828 11.1572C11.8828 11.1807 11.8828 11.1924 11.8828 11.1924C11.8828 11.1924 11.8711 11.1924 11.8477 11.1924C11.8242 11.1924 11.8125 11.1924 11.8125 11.1924C11.8125 11.2158 11.8066 11.2275 11.7949 11.2275C11.7832 11.2275 11.7773 11.2275 11.7773 11.2275C11.7539 11.2275 11.7422 11.2334 11.7422 11.2451C11.7422 11.2568 11.7422 11.2627 11.7422 11.2627C11.7422 11.2627 11.7305 11.2627 11.707 11.2627C11.707 11.2627 11.707 11.2686 11.707 11.2803C11.707 11.292 11.707 11.2979 11.707 11.2979C11.707 11.2979 11.7012 11.2979 11.6895 11.2979C11.6777 11.2979 11.6719 11.2979 11.6719 11.2979C11.6719 11.2979 11.6719 11.3037 11.6719 11.3154C11.6719 11.3271 11.6719 11.333 11.6719 11.333C11.6719 11.333 11.666 11.333 11.6543 11.333C11.6426 11.333 11.6367 11.333 11.6367 11.333C11.6367 11.333 11.6367 11.3389 11.6367 11.3506C11.6367 11.3623 11.6367 11.3682 11.6367 11.3682C11.6367 11.3682 11.6309 11.3682 11.6191 11.3682C11.6074 11.3682 11.6016 11.3799 11.6016 11.4033C11.6016 11.4033 11.6016 11.4092 11.6016 11.4209C11.6016 11.4326 11.5898 11.4385 11.5664 11.4385C11.5664 11.4385 11.5664 11.4502 11.5664 11.4736C11.5664 11.4971 11.5664 11.5088 11.5664 11.5088C11.543 11.5088 11.5312 11.5146 11.5312 11.5264C11.5312 11.5381 11.5312 11.5439 11.5312 11.5439C11.5312 11.5439 11.5312 11.5557 11.5312 11.5791C11.5312 11.6025 11.5312 11.6143 11.5312 11.6143C11.5312 11.6143 11.5312 11.6201 11.5312 11.6318C11.5312 11.6436 11.5312 11.6494 11.5312 11.6494C11.5312 11.6494 11.5312 11.6553 11.5312 11.667C11.5312 11.6787 11.5312 11.6846 11.5312 11.6846C11.5312 11.6846 11.5254 11.6846 11.5137 11.6846C11.502 11.6846 11.4961 11.6846 11.4961 11.6846C11.4023 11.708 11.3145 11.7314 11.2324 11.7549C11.1504 11.7783 11.0625 11.8018 10.9688 11.8252V9.08301C10.9688 8.14551 11.1445 7.2666 11.4961 6.44629C11.8477 5.62598 12.334 4.90527 12.9551 4.28418C13.5762 3.66309 14.2969 3.17676 15.1172 2.8252C15.9609 2.4502 16.8516 2.2627 17.7891 2.2627H18.3867C19.3242 2.2627 20.2148 2.4502 21.0586 2.8252C21.8789 3.17676 22.5996 3.66309 23.2207 4.28418C23.8418 4.90527 24.3281 5.62598 24.6797 6.44629C25.0312 7.2666 25.207 8.14551 25.207 9.08301V11.8252C25.1133 11.8018 25.0195 11.7783 24.9258 11.7549C24.832 11.7314 24.7383 11.708 24.6445 11.6846C24.6445 11.6846 24.6445 11.6787 24.6445 11.667C24.6445 11.6553 24.6445 11.6494 24.6445 11.6494C24.6211 11.6494 24.6094 11.6494 24.6094 11.6494C24.6094 11.626 24.6094 11.6143 24.6094 11.6143C24.6094 11.5908 24.6094 11.5791 24.6094 11.5791C24.6094 11.5791 24.6094 11.5732 24.6094 11.5615C24.6094 11.5498 24.6094 11.5439 24.6094 11.5439C24.6094 11.5439 24.6094 11.5381 24.6094 11.5264C24.6094 11.5146 24.6094 11.5088 24.6094 11.5088C24.6094 11.5088 24.6035 11.5088 24.5918 11.5088C24.5801 11.5088 24.5742 11.5088 24.5742 11.5088C24.5742 11.4854 24.5742 11.4736 24.5742 11.4736C24.5742 11.4736 24.5742 11.4678 24.5742 11.4561C24.5742 11.4443 24.5742 11.4385 24.5742 11.4385C24.5742 11.4385 24.5684 11.4385 24.5566 11.4385C24.5449 11.4385 24.5391 11.4268 24.5391 11.4033C24.5391 11.4033 24.5391 11.3975 24.5391 11.3857C24.5391 11.374 24.5273 11.3682 24.5039 11.3682C24.5039 11.3447 24.5039 11.333 24.5039 11.333C24.4805 11.333 24.4688 11.333 24.4688 11.333C24.4688 11.333 24.4688 11.3213 24.4688 11.2979C24.4688 11.2979 24.457 11.2979 24.4336 11.2979C24.4336 11.2979 24.4336 11.292 24.4336 11.2803C24.4336 11.2686 24.4336 11.2627 24.4336 11.2627C24.4336 11.2627 24.4277 11.2627 24.416 11.2627C24.4043 11.2627 24.3984 11.2627 24.3984 11.2627C24.3984 11.2627 24.3984 11.2568 24.3984 11.2451C24.3984 11.2334 24.3984 11.2275 24.3984 11.2275C24.375 11.2275 24.3633 11.2275 24.3633 11.2275C24.3633 11.2275 24.3574 11.2275 24.3457 11.2275C24.334 11.2275 24.3281 11.2275 24.3281 11.2275C24.3281 11.2041 24.3281 11.1924 24.3281 11.1924C24.3047 11.1924 24.293 11.1924 24.293 11.1924C24.293 11.1924 24.2871 11.1924 24.2754 11.1924C24.2637 11.1924 24.2578 11.1807 24.2578 11.1572C24.2578 11.1572 24.2461 11.1572 24.2227 11.1572C24.2227 11.1572 24.2109 11.1572 24.1875 11.1572C23.0625 10.8994 22.2949 10.2783 21.8848 9.29395C21.4746 8.30957 21.2695 7.80566 21.2695 7.78223C21.2461 7.68848 21.1934 7.60059 21.1113 7.51855C21.0293 7.43652 20.9297 7.38379 20.8125 7.36035C20.7188 7.33691 20.6191 7.34863 20.5137 7.39551C20.4082 7.44238 20.3203 7.5127 20.25 7.60645C19.6172 8.47363 18.832 9.1416 17.8945 9.61035C16.9805 10.1025 16.0957 10.46 15.2402 10.6826C14.3848 10.9053 13.6523 11.04 13.043 11.0869C12.4336 11.1104 12.1172 11.1221 12.0938 11.1221ZM12.6562 16.3252V12.2471C13.3828 12.2002 14.5605 11.9834 16.1895 11.5967C17.8184 11.21 19.2539 10.3721 20.4961 9.08301C20.707 9.5752 21.0527 10.1377 21.5332 10.7705C22.0137 11.4033 22.6641 11.8604 23.4844 12.1416V16.3252C23.4844 17.6377 23.0156 18.7686 22.0781 19.7178C21.1406 20.667 20.0039 21.1416 18.668 21.1416H17.4727C16.1602 21.1416 15.0293 20.667 14.0801 19.7178C13.1309 18.7686 12.6562 17.6377 12.6562 16.3252ZM14.8359 23.9541V24.0244C14.8359 24.0479 14.8359 24.0771 14.8359 24.1123C14.8359 24.1475 14.8477 24.1768 14.8711 24.2002C14.8242 24.2939 14.8125 24.3936 14.8359 24.499C14.8594 24.6045 14.918 24.7041 15.0117 24.7979L17.1914 26.9072L15.0117 28.4893L13.2891 24.9385L14.8359 23.9541ZM15.75 33.9033L14.6602 29.8955C14.6836 29.9189 14.707 29.9307 14.7305 29.9307C14.7539 29.9307 14.7773 29.9307 14.8008 29.9307C14.8711 29.9307 14.9355 29.9189 14.9941 29.8955C15.0527 29.8721 15.1055 29.8486 15.1523 29.8252L15.8555 29.2979L16.3125 30.458L15.75 33.9033ZM16.5938 35.9775L17.4023 30.9502H18.7383L19.5469 35.9775H16.5938ZM19.8281 30.458L20.25 29.333L20.918 29.8252C20.9648 29.8486 21.0176 29.8721 21.0762 29.8955C21.1348 29.9189 21.1875 29.9307 21.2344 29.9307C21.2578 29.9307 21.2812 29.9307 21.3047 29.9307C21.3281 29.9307 21.3516 29.9189 21.375 29.8955C21.3984 29.8955 21.4219 29.8896 21.4453 29.8779C21.4688 29.8662 21.4922 29.8604 21.5156 29.8604L20.3906 33.9385L19.8281 30.458ZM29.9531 35.9775H26.6484V31.7588C26.6484 31.5947 26.5957 31.4541 26.4902 31.3369C26.3848 31.2197 26.25 31.1611 26.0859 31.1611C25.9219 31.1611 25.7871 31.2197 25.6816 31.3369C25.5762 31.4541 25.5234 31.5947 25.5234 31.7588V35.9775H20.9883L23.9062 25.5361L26.5078 26.5908C26.5078 26.6143 26.5137 26.626 26.5254 26.626C26.5371 26.626 26.543 26.626 26.543 26.626C26.543 26.626 26.6309 26.6611 26.8066 26.7314C26.9824 26.8018 27.1875 26.9189 27.4219 27.083C28.0078 27.458 28.5762 28.0264 29.127 28.7881C29.6777 29.5498 29.9531 30.6104 29.9531 31.9697V35.9775ZM18.7383 16.8174C18.9023 16.8174 19.0371 16.7646 19.1426 16.6592C19.248 16.5537 19.3008 16.4189 19.3008 16.2549C19.3008 16.0908 19.248 15.9561 19.1426 15.8506C19.0371 15.7451 18.9023 15.6924 18.7383 15.6924H18.3164V14.3564C18.3164 14.2158 18.2637 14.0869 18.1582 13.9697C18.0527 13.8525 17.918 13.7939 17.7539 13.7939C17.5898 13.7939 17.4551 13.8525 17.3496 13.9697C17.2441 14.0869 17.1914 14.2158 17.1914 14.3564V16.2549C17.1914 16.4189 17.2441 16.5537 17.3496 16.6592C17.4551 16.7646 17.5898 16.8174 17.7539 16.8174H18.7383Z" fill="#3A416F"/>
</svg>
