<svg width="36" height="37" viewBox="0 0 36 37" fill="none" xmlns="http://www.w3.org/2000/svg">
<path d="M18 1.04297C8.36719 1.04297 0.5625 8.84766 0.5625 18.4805C0.5625 28.1133 8.36719 35.918 18 35.918C27.6328 35.918 35.4375 28.1133 35.4375 18.4805C35.4375 8.84766 27.6328 1.04297 18 1.04297ZM18 32.543C10.2445 32.543 3.9375 26.2359 3.9375 18.4805C3.9375 10.725 10.2445 4.41797 18 4.41797C25.7555 4.41797 32.0625 10.725 32.0625 18.4805C32.0625 26.2359 25.7555 32.543 18 32.543ZM12.375 17.3555C13.6195 17.3555 14.625 16.35 14.625 15.1055C14.625 13.8609 13.6195 12.8555 12.375 12.8555C11.1305 12.8555 10.125 13.8609 10.125 15.1055C10.125 16.35 11.1305 17.3555 12.375 17.3555ZM23.625 17.3555C24.8695 17.3555 25.875 16.35 25.875 15.1055C25.875 13.8609 24.8695 12.8555 23.625 12.8555C22.3805 12.8555 21.375 13.8609 21.375 15.1055C21.375 16.35 22.3805 17.3555 23.625 17.3555ZM23.9062 22.4602C22.4438 24.218 20.2852 25.2305 18 25.2305C15.7148 25.2305 13.5562 24.225 12.0938 22.4602C11.4961 21.743 10.4273 21.6516 9.71719 22.2422C9 22.8398 8.90859 23.9016 9.49922 24.6187C11.6086 27.15 14.7094 28.5984 18 28.5984C21.2906 28.5984 24.3914 27.15 26.5008 24.6187C27.0984 23.9016 27 22.8398 26.2828 22.2422C25.5727 21.6516 24.5039 21.743 23.9062 22.4602Z" fill="#3A416F"/>
</svg>
