<svg width="36" height="37" viewBox="0 0 36 37" fill="none" xmlns="http://www.w3.org/2000/svg">
<path d="M11.3289 25.9775C10.7179 25.3665 11.0364 25.5387 9.56264 25.1443C8.89397 24.965 8.30615 24.6204 7.77459 24.2077L4.58451 32.0293C4.27584 32.7865 4.8524 33.6092 5.66944 33.5783L9.3742 33.4369L11.9223 36.1285C12.4848 36.7219 13.472 36.537 13.7807 35.7797L17.4405 26.8065C16.6783 27.2312 15.8324 27.4801 14.9577 27.4801C13.5866 27.4801 12.2985 26.9464 11.3289 25.9775ZM31.4158 32.0293L28.2257 24.2077C27.6941 24.6212 27.1063 24.965 26.4376 25.1443C24.9562 25.5408 25.281 25.3679 24.6714 25.9775C23.7018 26.9464 22.413 27.4801 21.0419 27.4801C20.1672 27.4801 19.3213 27.2304 18.5591 26.8065L22.2189 35.7797C22.5276 36.537 23.5155 36.7219 24.0772 36.1285L26.6261 33.4369L30.3308 33.5783C31.1479 33.6092 31.7244 32.7858 31.4158 32.0293ZM22.9923 24.3863C24.0667 23.2929 24.1897 23.3872 25.7197 22.9702C26.6964 22.7037 27.46 21.9268 27.7215 20.9326C28.2475 18.9357 28.1111 19.1769 29.5462 17.7158C30.2612 16.988 30.5404 15.927 30.2788 14.9328C29.7536 12.9373 29.7529 13.2158 30.2788 11.2182C30.5404 10.224 30.2612 9.16295 29.5462 8.43522C28.1111 6.97412 28.2475 7.21459 27.7215 5.21842C27.46 4.2242 26.6964 3.44725 25.7197 3.18076C23.7594 2.64568 23.9957 2.78561 22.5592 1.32381C21.8441 0.596075 20.8014 0.311309 19.8247 0.577793C17.8651 1.11217 18.1387 1.11287 16.1755 0.577793C15.1989 0.311309 14.1562 0.595372 13.4411 1.32381C12.006 2.7849 12.2422 2.64568 10.2812 3.18076C9.30459 3.44725 8.541 4.2242 8.27944 5.21842C7.7542 7.21459 7.8899 6.97412 6.45483 8.43522C5.73975 9.16295 5.4599 10.224 5.72217 11.2182C6.2474 13.2122 6.24811 12.9338 5.72217 14.9321C5.46061 15.9263 5.73975 16.9873 6.45483 17.7158C7.8899 19.1769 7.7535 18.9357 8.27944 20.9326C8.541 21.9268 9.30459 22.7037 10.2812 22.9702C11.8548 23.3991 11.9722 23.3316 13.008 24.3863C13.9382 25.3334 15.3873 25.5029 16.5053 24.7955C16.9524 24.5117 17.471 24.361 18.0005 24.361C18.53 24.361 19.0486 24.5117 19.4957 24.7955C20.613 25.5029 22.0621 25.3334 22.9923 24.3863ZM11.3669 12.8522C11.3669 9.12358 14.3369 6.10084 18.0001 6.10084C21.6634 6.10084 24.6334 9.12358 24.6334 12.8522C24.6334 16.5809 21.6634 19.6037 18.0001 19.6037C14.3369 19.6037 11.3669 16.5809 11.3669 12.8522Z" fill="#3A416F"/>
</svg>
