<svg width="36" height="37" viewBox="0 0 36 37" fill="none" xmlns="http://www.w3.org/2000/svg">
<path d="M31.7461 17.6016C31.1367 17.2969 30.3984 17.1211 29.5312 17.0742C28.6641 17.0273 28.207 17.0039 28.1602 17.0039C27.9961 17.0039 27.8672 17.0508 27.7734 17.1445C27.6797 17.2383 27.6328 17.3672 27.6328 17.5312C27.6328 17.6719 27.6797 17.7949 27.7734 17.9004C27.8672 18.0059 27.9961 18.0586 28.1602 18.0586C28.4414 18.0586 28.9277 18.0879 29.6191 18.1465C30.3105 18.2051 30.8672 18.3398 31.2891 18.5508C31.3359 18.5742 31.377 18.5918 31.4121 18.6035C31.4473 18.6152 31.4883 18.6211 31.5352 18.6211C31.6289 18.6211 31.7168 18.5918 31.7988 18.5332C31.8809 18.4746 31.9453 18.3984 31.9922 18.3047C32.0625 18.1875 32.0742 18.0586 32.0273 17.918C31.9805 17.7773 31.8867 17.6719 31.7461 17.6016ZM34.3828 25.125L32.2031 24.4922C32.1562 24.4922 32.1211 24.4688 32.0977 24.4219C32.0742 24.375 32.0625 24.3281 32.0625 24.2812V23.543C32.1562 23.4961 32.2441 23.4375 32.3262 23.3672C32.4082 23.2969 32.4844 23.2266 32.5547 23.1562C32.9297 22.7812 33.2227 22.3535 33.4336 21.873C33.6445 21.3926 33.75 20.8828 33.75 20.3438V19.3242L33.9609 18.9023C34.0781 18.6914 34.166 18.457 34.2246 18.1992C34.2832 17.9414 34.3125 17.6836 34.3125 17.4258V14.7188C34.3125 14.5547 34.2598 14.4258 34.1543 14.332C34.0488 14.2383 33.9258 14.1914 33.7852 14.1914H28.7227C27.7852 14.1914 26.9883 14.5137 26.332 15.1582C25.6758 15.8027 25.3477 16.5938 25.3477 17.5312V17.5664C25.3477 17.7773 25.377 17.9883 25.4355 18.1992C25.4941 18.4102 25.5703 18.6094 25.6641 18.7969L25.9102 19.3242V20.2031C25.9102 20.8828 26.0684 21.5156 26.3848 22.1016C26.7012 22.6875 27.1172 23.1562 27.6328 23.5078V24.2812C27.6328 24.3516 27.6094 24.4043 27.5625 24.4395C27.5156 24.4746 27.3867 24.5156 27.1758 24.5625L26.1211 24.8789L23.0273 23.7539C23.0508 23.6836 23.0508 23.6133 23.0273 23.543C23.0039 23.4727 22.957 23.4141 22.8867 23.3672L21.9023 22.3125V20.5898C21.9727 20.543 22.0312 20.502 22.0781 20.4668C22.125 20.4316 22.1719 20.3906 22.2188 20.3438C22.8516 19.7578 23.3379 19.0723 23.6777 18.2871C24.0176 17.502 24.1875 16.6875 24.1875 15.8438V14.4375C24.375 14.0391 24.5156 13.623 24.6094 13.1895C24.7031 12.7559 24.75 12.3164 24.75 11.8711V6.24609C24.75 6.10547 24.6973 5.98242 24.5918 5.87695C24.4863 5.77148 24.3633 5.71875 24.2227 5.71875H16.3125C14.9297 5.71875 13.7461 6.21094 12.7617 7.19531C11.7773 8.17969 11.2852 9.36328 11.2852 10.7461V11.8711C11.2852 12.3164 11.332 12.7559 11.4258 13.1895C11.5195 13.623 11.6602 14.0391 11.8477 14.4375V15.6328C11.8477 16.6172 12.0527 17.5371 12.4629 18.3926C12.873 19.248 13.418 19.9688 14.0977 20.5547V22.3125L13.1133 23.3672C13.0664 23.4141 13.0312 23.4727 13.0078 23.543C12.9844 23.6133 12.9727 23.6836 12.9727 23.7539L9.73828 24.9492C9.62109 24.9961 9.50391 25.0488 9.38672 25.1074C9.26953 25.166 9.16406 25.2305 9.07031 25.3008L8.57812 25.0195C9.32812 24.6914 9.84961 24.3457 10.1426 23.9824C10.4355 23.6191 10.582 23.4258 10.582 23.4023C10.6289 23.332 10.6523 23.2559 10.6523 23.1738C10.6523 23.0918 10.6289 23.0039 10.582 22.9102C10.3945 22.5352 10.2773 22.0371 10.2305 21.416C10.1836 20.7949 10.1484 20.2031 10.125 19.6406C10.125 19.4531 10.1191 19.2715 10.1074 19.0957C10.0957 18.9199 10.0898 18.7617 10.0898 18.6211C9.99609 17.3555 9.52148 16.3008 8.66602 15.457C7.81055 14.6133 6.78516 14.1914 5.58984 14.1914C4.41797 14.1914 3.4043 14.6133 2.54883 15.457C1.69336 16.3008 1.21875 17.3555 1.125 18.6211C1.125 18.7617 1.11914 18.9199 1.10742 19.0957C1.0957 19.2715 1.08984 19.4531 1.08984 19.6406C1.06641 20.2031 1.03125 20.7949 0.984375 21.416C0.9375 22.0371 0.820312 22.5352 0.632812 22.9102C0.585938 23.0039 0.5625 23.0918 0.5625 23.1738C0.5625 23.2559 0.585938 23.332 0.632812 23.4023C0.632812 23.4258 0.779297 23.6191 1.07227 23.9824C1.36523 24.3457 1.88672 24.6914 2.63672 25.0195L1.23047 25.7227C0.855469 25.9102 0.556641 26.1855 0.333984 26.5488C0.111328 26.9121 0 27.3047 0 27.7266V31.6289C0 31.7695 0.0527344 31.8926 0.158203 31.998C0.263672 32.1035 0.386719 32.1562 0.527344 32.1562C0.667969 32.1562 0.791016 32.1035 0.896484 31.998C1.00195 31.8926 1.05469 31.7695 1.05469 31.6289V27.7266C1.05469 27.4922 1.11328 27.2812 1.23047 27.0938C1.34766 26.9062 1.5 26.7656 1.6875 26.6719L3.44531 25.793L4.07812 26.3906C4.28906 26.5781 4.5293 26.7246 4.79883 26.8301C5.06836 26.9355 5.33203 26.9883 5.58984 26.9883C5.87109 26.9883 6.14648 26.9355 6.41602 26.8301C6.68555 26.7246 6.92578 26.5781 7.13672 26.3906L7.73438 25.793L8.33203 26.0742C8.19141 26.3086 8.08594 26.5488 8.01562 26.7949C7.94531 27.041 7.91016 27.293 7.91016 27.5508V31.6289C7.91016 31.7695 7.95703 31.8926 8.05078 31.998C8.14453 32.1035 8.27344 32.1562 8.4375 32.1562C8.57812 32.1562 8.70117 32.1035 8.80664 31.998C8.91211 31.8926 8.96484 31.7695 8.96484 31.6289V27.5508C8.96484 27.1992 9.06445 26.8711 9.26367 26.5664C9.46289 26.2617 9.73828 26.0508 10.0898 25.9336L13.5 24.7031L14.9414 26.8125C15.0352 26.9531 15.1523 27.0645 15.293 27.1465C15.4336 27.2285 15.5742 27.2812 15.7148 27.3047C15.7383 27.3047 15.7617 27.3047 15.7852 27.3047C15.8086 27.3047 15.832 27.3047 15.8555 27.3047C15.9961 27.3047 16.1309 27.2812 16.2598 27.2344C16.3887 27.1875 16.5 27.1055 16.5938 26.9883L17.4727 26.1094V31.6289C17.4727 31.7695 17.5254 31.8926 17.6309 31.998C17.7363 32.1035 17.8594 32.1562 18 32.1562C18.1406 32.1562 18.2637 32.1035 18.3691 31.998C18.4746 31.8926 18.5273 31.7695 18.5273 31.6289V26.1094L19.4062 26.9883C19.5 27.1055 19.6172 27.1875 19.7578 27.2344C19.8984 27.2812 20.0391 27.3047 20.1797 27.3047C20.2031 27.3047 20.2207 27.3047 20.2324 27.3047C20.2441 27.3047 20.2617 27.3047 20.2852 27.3047C20.4492 27.2812 20.6016 27.2285 20.7422 27.1465C20.8828 27.0645 21 26.9531 21.0938 26.8125L22.5 24.7031L25.9102 25.9336C26.2617 26.0508 26.543 26.2617 26.7539 26.5664C26.9648 26.8711 27.0703 27.1992 27.0703 27.5508V31.6289C27.0703 31.7695 27.123 31.8926 27.2285 31.998C27.334 32.1035 27.457 32.1562 27.5977 32.1562C27.7383 32.1562 27.8613 32.1035 27.9668 31.998C28.0723 31.8926 28.125 31.7695 28.125 31.6289V27.5508C28.125 27.1992 28.0547 26.8535 27.9141 26.5137C27.7734 26.1738 27.5859 25.875 27.3516 25.6172L27.457 25.582C27.5273 25.5586 27.6035 25.5352 27.6855 25.5117C27.7676 25.4883 27.8555 25.4531 27.9492 25.4062L29.3203 26.7773V31.6289C29.3203 31.7695 29.3672 31.8926 29.4609 31.998C29.5547 32.1035 29.6836 32.1562 29.8477 32.1562C29.9883 32.1562 30.1113 32.1035 30.2168 31.998C30.3223 31.8926 30.375 31.7695 30.375 31.6289V26.7773L31.7109 25.4414C31.7344 25.4414 31.7637 25.4531 31.7988 25.4766C31.834 25.5 31.875 25.5117 31.9219 25.5117L34.1016 26.1445C34.3594 26.2148 34.5645 26.3555 34.7168 26.5664C34.8691 26.7773 34.9453 27.0117 34.9453 27.2695V31.6289C34.9453 31.7695 34.998 31.8926 35.1035 31.998C35.209 32.1035 35.332 32.1562 35.4727 32.1562C35.6133 32.1562 35.7363 32.1035 35.8418 31.998C35.9473 31.8926 36 31.7695 36 31.6289V27.2695C36 26.7773 35.8477 26.332 35.543 25.9336C35.2383 25.5352 34.8516 25.2656 34.3828 25.125ZM3.375 24.1758C2.88281 24.0117 2.50781 23.8242 2.25 23.6133C1.99219 23.4023 1.80469 23.2266 1.6875 23.0859C1.75781 22.8984 1.81641 22.6992 1.86328 22.4883C1.91016 22.2773 1.95703 22.0664 2.00391 21.8555C2.14453 22.1836 2.33203 22.4941 2.56641 22.7871C2.80078 23.0801 3.07031 23.332 3.375 23.543V24.1758ZM6.39844 25.6172C6.1875 25.8281 5.92383 25.9336 5.60742 25.9336C5.29102 25.9336 5.02734 25.8281 4.81641 25.6172L4.32422 25.1602C4.34766 25.0664 4.37109 24.9785 4.39453 24.8965C4.41797 24.8145 4.42969 24.7266 4.42969 24.6328V24.0703C4.61719 24.1406 4.81055 24.1875 5.00977 24.2109C5.20898 24.2344 5.40234 24.2461 5.58984 24.2461C5.80078 24.2461 6.00586 24.2344 6.20508 24.2109C6.4043 24.1875 6.58594 24.1406 6.75 24.0703V24.6328C6.75 24.7266 6.76172 24.8145 6.78516 24.8965C6.80859 24.9785 6.84375 25.0664 6.89062 25.1602L6.39844 25.6172ZM5.58984 23.1914C4.81641 23.1914 4.14844 22.9102 3.58594 22.3477C3.02344 21.7852 2.74219 21.1172 2.74219 20.3438C2.74219 20.2031 2.68945 20.0801 2.58398 19.9746C2.47852 19.8691 2.35547 19.8164 2.21484 19.8164C2.19141 19.8164 2.17383 19.8164 2.16211 19.8164C2.15039 19.8164 2.14453 19.8164 2.14453 19.8164C2.14453 19.793 2.14453 19.7695 2.14453 19.7461C2.14453 19.7227 2.14453 19.6992 2.14453 19.6758C2.14453 19.5117 2.15039 19.3418 2.16211 19.166C2.17383 18.9902 2.17969 18.832 2.17969 18.6914C2.20312 18.2227 2.30859 17.7773 2.49609 17.3555C2.68359 16.9336 2.92969 16.5586 3.23438 16.2305C3.5625 15.9023 3.92578 15.6562 4.32422 15.4922C4.72266 15.3281 5.14453 15.2461 5.58984 15.2461C6.03516 15.2461 6.46289 15.3281 6.87305 15.4922C7.2832 15.6562 7.64062 15.9023 7.94531 16.2305C8.27344 16.5586 8.52539 16.9336 8.70117 17.3555C8.87695 17.7773 8.98828 18.2227 9.03516 18.6914C9.03516 18.832 9.04102 18.9902 9.05273 19.166C9.06445 19.3418 9.07031 19.5117 9.07031 19.6758C9.07031 19.6992 9.07031 19.7168 9.07031 19.7285C9.07031 19.7402 9.07031 19.7578 9.07031 19.7812C8.78906 19.3359 8.42578 18.9551 7.98047 18.6387C7.53516 18.3223 7.03125 18.0703 6.46875 17.8828C5.92969 17.7188 5.4668 17.625 5.08008 17.6016C4.69336 17.5781 4.48828 17.5664 4.46484 17.5664C4.39453 17.5664 4.33008 17.5781 4.27148 17.6016C4.21289 17.625 4.14844 17.6602 4.07812 17.707L3.12891 18.6914C3.03516 18.8086 2.98828 18.9375 2.98828 19.0781C2.98828 19.2188 3.04688 19.3477 3.16406 19.4648C3.25781 19.5586 3.38086 19.6055 3.5332 19.6055C3.68555 19.6055 3.80859 19.5469 3.90234 19.4297L4.71094 18.6211C5.03906 18.6445 5.63086 18.7734 6.48633 19.0078C7.3418 19.2422 7.99219 19.8398 8.4375 20.8008C8.32031 21.4805 7.99805 22.0488 7.4707 22.5059C6.94336 22.9629 6.31641 23.1914 5.58984 23.1914ZM7.80469 24.1758V23.5781C8.13281 23.3672 8.41406 23.1152 8.64844 22.8223C8.88281 22.5293 9.07031 22.207 9.21094 21.8555C9.23438 22.0664 9.27539 22.2773 9.33398 22.4883C9.39258 22.6992 9.45703 22.8984 9.52734 23.0859C9.41016 23.2266 9.2168 23.4023 8.94727 23.6133C8.67773 23.8242 8.29688 24.0117 7.80469 24.1758ZM12.9023 15.6328V14.332C12.9023 14.2852 12.8965 14.2441 12.8848 14.209C12.873 14.1738 12.8555 14.1328 12.832 14.0859C12.668 13.7344 12.5449 13.377 12.4629 13.0137C12.3809 12.6504 12.3398 12.2695 12.3398 11.8711V10.7461C12.3398 9.64453 12.7266 8.70703 13.5 7.93359C14.2734 7.16016 15.2109 6.77344 16.3125 6.77344H23.6953V11.8711C23.6953 12.2695 23.6484 12.6504 23.5547 13.0137C23.4609 13.377 23.332 13.7344 23.168 14.0859C23.1445 14.1328 23.1328 14.1738 23.1328 14.209C23.1328 14.2441 23.1328 14.2852 23.1328 14.332V15.8438C23.1328 16.5469 22.9922 17.2207 22.7109 17.8652C22.4297 18.5098 22.0312 19.0781 21.5156 19.5703C21.4453 19.6172 21.375 19.6699 21.3047 19.7285C21.2344 19.7871 21.1641 19.8398 21.0938 19.8867C21.0938 19.8867 21.0938 19.8926 21.0938 19.9043C21.0938 19.916 21.0938 19.9219 21.0938 19.9219C20.6016 20.2734 20.0625 20.5371 19.4766 20.7129C18.8906 20.8887 18.2812 20.9648 17.6484 20.9414C16.3125 20.8477 15.1875 20.291 14.2734 19.2715C13.3594 18.252 12.9023 17.0391 12.9023 15.6328ZM15.8555 26.25C15.8555 26.25 15.8438 26.25 15.8203 26.25L14.168 23.7891L14.6953 23.2266L17.1914 24.9141L15.8555 26.25ZM18 24.2109L15.1523 22.2773V21.293C15.5273 21.4805 15.9199 21.6328 16.3301 21.75C16.7402 21.8672 17.168 21.9492 17.6133 21.9961C17.6836 21.9961 17.748 21.9961 17.8066 21.9961C17.8652 21.9961 17.9297 21.9961 18 21.9961C18.5156 21.9961 19.0137 21.9375 19.4941 21.8203C19.9746 21.7031 20.4258 21.5273 20.8477 21.293V22.2773L18 24.2109ZM20.2148 26.25C20.2148 26.25 20.209 26.25 20.1973 26.25C20.1855 26.25 20.1797 26.25 20.1797 26.25C20.1797 26.25 20.1738 26.25 20.1621 26.25C20.1504 26.25 20.1445 26.25 20.1445 26.25L18.8438 24.9141L21.3047 23.2266L21.832 23.7891L20.2148 26.25ZM29.8477 25.793L28.6523 24.5977C28.6523 24.5508 28.6582 24.5039 28.6699 24.457C28.6816 24.4102 28.6875 24.3516 28.6875 24.2812V24.0703C28.8516 24.1172 29.0156 24.1582 29.1797 24.1934C29.3438 24.2285 29.5195 24.2461 29.707 24.2461C29.7305 24.2461 29.7539 24.2461 29.7773 24.2461C29.8008 24.2461 29.8242 24.2461 29.8477 24.2461C30.0352 24.2461 30.2285 24.2344 30.4277 24.2109C30.627 24.1875 30.8203 24.1406 31.0078 24.0703V24.2812C31.0078 24.3281 31.0078 24.3809 31.0078 24.4395C31.0078 24.498 31.0195 24.5508 31.043 24.5977L29.8477 25.793ZM31.8164 22.3828C31.5352 22.6641 31.2188 22.875 30.8672 23.0156C30.5156 23.1562 30.1406 23.2148 29.7422 23.1914C28.9922 23.168 28.3418 22.8633 27.791 22.2773C27.2402 21.6914 26.9648 21 26.9648 20.2031V19.2188C26.9648 19.1719 26.9648 19.1309 26.9648 19.0957C26.9648 19.0605 26.9531 19.0195 26.9297 18.9727L26.6133 18.3398C26.543 18.1992 26.4902 18.0645 26.4551 17.9355C26.4199 17.8066 26.4023 17.6836 26.4023 17.5664V17.5312C26.4023 16.8984 26.6309 16.3594 27.0879 15.9141C27.5449 15.4688 28.0898 15.2461 28.7227 15.2461H33.2578V17.4258C33.2578 17.5898 33.2344 17.7598 33.1875 17.9355C33.1406 18.1113 33.082 18.2812 33.0117 18.4453L32.7305 18.9727C32.7305 19.0195 32.7246 19.0605 32.7129 19.0957C32.7012 19.1309 32.6953 19.1719 32.6953 19.2188V20.3438C32.6953 20.7422 32.6191 21.1172 32.4668 21.4688C32.3145 21.8203 32.0977 22.125 31.8164 22.3828ZM33.2227 27.6914C33.082 27.6914 32.959 27.7441 32.8535 27.8496C32.748 27.9551 32.6953 28.0781 32.6953 28.2188V31.6289C32.6953 31.7695 32.748 31.8926 32.8535 31.998C32.959 32.1035 33.082 32.1562 33.2227 32.1562C33.3633 32.1562 33.4863 32.1035 33.5918 31.998C33.6973 31.8926 33.75 31.7695 33.75 31.6289V28.2188C33.75 28.0781 33.6973 27.9551 33.5918 27.8496C33.4863 27.7441 33.3633 27.6914 33.2227 27.6914ZM2.77734 28.3945C2.63672 28.3945 2.51367 28.4473 2.4082 28.5527C2.30273 28.6582 2.25 28.7812 2.25 28.9219V31.6289C2.25 31.7695 2.30273 31.8926 2.4082 31.998C2.51367 32.1035 2.63672 32.1562 2.77734 32.1562C2.91797 32.1562 3.04102 32.1035 3.14648 31.998C3.25195 31.8926 3.30469 31.7695 3.30469 31.6289V28.9219C3.30469 28.7812 3.25195 28.6582 3.14648 28.5527C3.04102 28.4473 2.91797 28.3945 2.77734 28.3945ZM22.3242 12.082C21.3398 11.0742 19.998 10.5645 18.2988 10.5527C16.5996 10.541 15.3164 10.5938 14.4492 10.7109C14.1914 10.7578 13.9746 10.8809 13.7988 11.0801C13.623 11.2793 13.5352 11.5195 13.5352 11.8008V12.9961C13.5352 13.1602 13.5879 13.2891 13.6934 13.3828C13.7988 13.4766 13.9219 13.5234 14.0625 13.5234C14.2031 13.5234 14.3262 13.4766 14.4316 13.3828C14.5371 13.2891 14.5898 13.1602 14.5898 12.9961V11.8008C14.5898 11.7773 14.5898 11.7656 14.5898 11.7656C14.5898 11.7656 14.6016 11.7656 14.625 11.7656C14.9531 11.7188 15.4277 11.666 16.0488 11.6074C16.6699 11.5488 17.332 11.543 18.0352 11.5898C18.8555 11.6367 19.5645 11.7656 20.1621 11.9766C20.7598 12.1875 21.2344 12.4688 21.5859 12.8203C21.6797 12.9141 21.8027 12.9609 21.9551 12.9609C22.1074 12.9609 22.2305 12.9141 22.3242 12.8203C22.418 12.7266 22.4648 12.6035 22.4648 12.4512C22.4648 12.2988 22.418 12.1758 22.3242 12.082ZM11.8125 28.8516C11.6719 28.8516 11.5488 28.8984 11.4434 28.9922C11.3379 29.0859 11.2852 29.2148 11.2852 29.3789V31.6289C11.2852 31.7695 11.3379 31.8926 11.4434 31.998C11.5488 32.1035 11.6719 32.1562 11.8125 32.1562C11.9531 32.1562 12.0762 32.1035 12.1816 31.998C12.2871 31.8926 12.3398 31.7695 12.3398 31.6289V29.3789C12.3398 29.2148 12.2871 29.0859 12.1816 28.9922C12.0762 28.8984 11.9531 28.8516 11.8125 28.8516ZM24.2227 28.8516C24.0586 28.8516 23.9297 28.8984 23.8359 28.9922C23.7422 29.0859 23.6953 29.2148 23.6953 29.3789V31.6289C23.6953 31.7695 23.7422 31.8926 23.8359 31.998C23.9297 32.1035 24.0586 32.1562 24.2227 32.1562C24.3633 32.1562 24.4863 32.1035 24.5918 31.998C24.6973 31.8926 24.75 31.7695 24.75 31.6289V29.3789C24.75 29.2148 24.6973 29.0859 24.5918 28.9922C24.4863 28.8984 24.3633 28.8516 24.2227 28.8516Z" fill="#3A416F"/>
</svg>
