<svg width="25" height="26" viewBox="0 0 25 26" fill="none" xmlns="http://www.w3.org/2000/svg">
<path d="M12.5 10.4551C11.9849 10.4553 11.4815 10.6082 11.0533 10.8945C10.6251 11.1808 10.2914 11.5876 10.0945 12.0636C9.89748 12.5395 9.84604 13.0631 9.94665 13.5683C10.0473 14.0734 10.2954 14.5374 10.6597 14.9016C11.024 15.2657 11.488 15.5137 11.9932 15.6141C12.4984 15.7145 13.022 15.6629 13.4979 15.4657C13.9738 15.2686 14.3805 14.9347 14.6666 14.5064C14.9527 14.0782 15.1055 13.5746 15.1055 13.0596C15.105 12.3688 14.8302 11.7065 14.3417 11.2181C13.8532 10.7298 13.1908 10.4553 12.5 10.4551ZM18.5894 8.45312C18.4568 8.11711 18.2565 7.81192 18.0011 7.5565C17.7457 7.30107 17.4405 7.10085 17.1045 6.96826C16.0791 6.56348 13.6377 6.6543 12.5 6.6543C11.3623 6.6543 8.92334 6.56006 7.89502 6.96826C7.55901 7.10085 7.25382 7.30107 6.99839 7.5565C6.74296 7.81192 6.54275 8.11711 6.41016 8.45312C6.00586 9.47852 6.09619 11.9224 6.09619 13.0591C6.09619 14.1958 6.00586 16.6367 6.41211 17.6655C6.5447 18.0015 6.74492 18.3067 7.00034 18.5622C7.25577 18.8176 7.56096 19.0178 7.89697 19.1504C8.92236 19.5552 11.3638 19.4644 12.502 19.4644C13.6401 19.4644 16.0781 19.5586 17.1064 19.1504C17.4425 19.0178 17.7476 18.8176 18.0031 18.5622C18.2585 18.3067 18.4587 18.0015 18.5913 17.6655C18.999 16.6401 18.9053 14.1963 18.9053 13.0596C18.9053 11.9229 18.999 9.48242 18.5913 8.45361L18.5894 8.45312ZM12.5 17.0635C11.7081 17.0635 10.934 16.8287 10.2755 16.3887C9.61711 15.9487 9.10392 15.3234 8.80087 14.5918C8.49783 13.8602 8.41854 13.0551 8.57303 12.2784C8.72752 11.5018 9.10885 10.7883 9.66881 10.2284C10.2288 9.66842 10.9422 9.28709 11.7189 9.1326C12.4956 8.97811 13.3006 9.0574 14.0322 9.36044C14.7638 9.66349 15.3892 10.1767 15.8291 10.8351C16.2691 11.4936 16.5039 12.2677 16.5039 13.0596C16.5045 13.5856 16.4014 14.1065 16.2004 14.5926C15.9994 15.0786 15.7045 15.5203 15.3326 15.8922C14.9607 16.2641 14.5191 16.559 14.033 16.76C13.5469 16.961 13.026 17.0641 12.5 17.0635ZM16.6689 9.82227C16.4841 9.82236 16.3033 9.76763 16.1496 9.665C15.9958 9.56237 15.876 9.41644 15.8052 9.24568C15.7344 9.07492 15.7158 8.88699 15.7518 8.70567C15.7878 8.52435 15.8768 8.35778 16.0074 8.22703C16.1381 8.09628 16.3046 8.00722 16.486 7.97112C16.6673 7.93502 16.8552 7.9535 17.026 8.02422C17.1968 8.09494 17.3428 8.21473 17.4455 8.36843C17.5482 8.52213 17.603 8.70283 17.603 8.8877C17.6035 9.01046 17.5798 9.13211 17.5332 9.24568C17.4866 9.35925 17.418 9.4625 17.3314 9.54951C17.2448 9.63652 17.1419 9.70557 17.0285 9.75272C16.9152 9.79986 16.7937 9.82416 16.6709 9.82422L16.6689 9.82227ZM21.0938 2.12207H3.90625C3.28465 2.12207 2.68851 2.369 2.24897 2.80854C1.80943 3.24808 1.5625 3.84422 1.5625 4.46582L1.5625 21.6533C1.5625 22.2749 1.80943 22.8711 2.24897 23.3106C2.68851 23.7501 3.28465 23.9971 3.90625 23.9971H21.0938C21.7154 23.9971 22.3115 23.7501 22.751 23.3106C23.1906 22.8711 23.4375 22.2749 23.4375 21.6533V4.46582C23.4375 3.84422 23.1906 3.24808 22.751 2.80854C22.3115 2.369 21.7154 2.12207 21.0938 2.12207ZM20.2578 16.2822C20.1948 17.5337 19.9092 18.6426 18.9956 19.5537C18.082 20.4648 16.9741 20.7563 15.7241 20.8159C14.4346 20.8887 10.5684 20.8887 9.27881 20.8159C8.02734 20.7529 6.92236 20.4668 6.00732 19.5537C5.09229 18.6406 4.80469 17.5312 4.74512 16.2822C4.67236 14.9922 4.67236 11.1255 4.74512 9.83691C4.80811 8.58545 5.09033 7.47656 6.00732 6.56543C6.92432 5.6543 8.03223 5.36621 9.27881 5.30664C10.5684 5.23389 14.4346 5.23389 15.7241 5.30664C16.9756 5.36963 18.084 5.65576 18.9956 6.56885C19.9072 7.48193 20.1982 8.59131 20.2578 9.84277C20.3306 11.1279 20.3306 14.9912 20.2578 16.2822Z" fill="#F2F5F7"/>
</svg>
