<svg width="25" height="26" viewBox="0 0 25 26" fill="none" xmlns="http://www.w3.org/2000/svg">
<path d="M21.875 2.12207H3.12012C2.26074 2.12207 1.5625 2.83008 1.5625 3.69922V22.4199C1.5625 23.2891 2.26074 23.9971 3.12012 23.9971H21.875C22.7344 23.9971 23.4375 23.2891 23.4375 22.4199V3.69922C23.4375 2.83008 22.7344 2.12207 21.875 2.12207ZM8.17383 20.8721H4.93164V10.4326H8.17871V20.8721H8.17383ZM6.55273 9.00684C5.5127 9.00684 4.67285 8.16211 4.67285 7.12695C4.67285 6.0918 5.5127 5.24707 6.55273 5.24707C7.58789 5.24707 8.43262 6.0918 8.43262 7.12695C8.43262 8.16699 7.59277 9.00684 6.55273 9.00684ZM20.3271 20.8721H17.085V15.7939C17.085 14.583 17.0605 13.0254 15.4004 13.0254C13.7109 13.0254 13.4521 14.3438 13.4521 15.7061V20.8721H10.21V10.4326H13.3203V11.8584H13.3643C13.7988 11.0381 14.8584 10.1738 16.4355 10.1738C19.7168 10.1738 20.3271 12.3369 20.3271 15.1494V20.8721Z" fill="#F2F5F7"/>
</svg>
