<svg width="25" height="26" viewBox="0 0 25 26" fill="none" xmlns="http://www.w3.org/2000/svg">
<path d="M23.8569 7.33433C23.5842 6.30786 22.781 5.49944 21.7612 5.22509C19.9127 4.72656 12.5003 4.72656 12.5003 4.72656C12.5003 4.72656 5.08798 4.72656 3.23941 5.22509C2.21957 5.49948 1.41636 6.30786 1.14375 7.33433C0.648438 9.19488 0.648438 13.0767 0.648438 13.0767C0.648438 13.0767 0.648438 16.9586 1.14375 18.8191C1.41636 19.8456 2.21957 20.6204 3.23941 20.8947C5.08798 21.3932 12.5003 21.3932 12.5003 21.3932C12.5003 21.3932 19.9126 21.3932 21.7612 20.8947C22.781 20.6204 23.5842 19.8456 23.8569 18.8191C24.3522 16.9586 24.3522 13.0767 24.3522 13.0767C24.3522 13.0767 24.3522 9.19488 23.8569 7.33433ZM10.076 16.6012V9.5523L16.2713 13.0768L10.076 16.6012Z" fill="#F2F5F7"/>
</svg>
